REM DIRINDEX 1\2,1\4,1\5,1\6,1\7,1\8,1\3\9,1\3\10,1\3\11,1\12
REM DIRNAME folder01,folder02,folder03,folder04,folder05,folder06,folder07,folder08,folder09,folder10,folder11,folder12
TITLE ""
FILE "CD-BTrack61.mp3" MP3
  TRACK 01 AUDIO
    TITLE "12:cjc055_3809"
    INDEX 01 00:00:00
  TRACK 02 AUDIO
    TITLE "7:cjc055_3810"
    INDEX 01 00:03:19
  TRACK 03 AUDIO
    TITLE "7:cjc055_3811"
    INDEX 01 00:04:36
  TRACK 04 AUDIO
    TITLE "7:cjc055_3812"
    INDEX 01 00:05:54
  TRACK 05 AUDIO
    TITLE "7:cjc055_3813"
    INDEX 01 00:06:73
  TRACK 06 AUDIO
    TITLE "7:cjc055_3814"
    INDEX 01 00:08:64
  TRACK 07 AUDIO
    TITLE "7:cjc055_3815"
    INDEX 01 00:09:65
  TRACK 08 AUDIO
    TITLE "7:cjc055_3816"
    INDEX 01 00:10:70
  TRACK 09 AUDIO
    TITLE "7:cjc055_3817"
    INDEX 01 00:12:01
  TRACK 10 AUDIO
    TITLE "7:cjc055_3818"
    INDEX 01 00:13:65
  TRACK 11 AUDIO
    TITLE "7:cjc055_3819"
    INDEX 01 00:14:70
  TRACK 12 AUDIO
    TITLE "7:cjc055_3820"
    INDEX 01 00:16:00
  TRACK 13 AUDIO
    TITLE "7:cjc055_3821"
    INDEX 01 00:17:08
  TRACK 14 AUDIO
    TITLE "7:cjc055_3822"
    INDEX 01 00:18:68
  TRACK 15 AUDIO
    TITLE "7:cjc055_3823"
    INDEX 01 00:20:00
  TRACK 16 AUDIO
    TITLE "7:cjc055_3824"
    INDEX 01 00:21:06
  TRACK 17 AUDIO
    TITLE "7:cjc055_3825"
    INDEX 01 00:22:13
  TRACK 18 AUDIO
    TITLE "7:cjc055_3826"
    INDEX 01 00:23:71
  TRACK 19 AUDIO
    TITLE "7:cjc055_3827"
    INDEX 01 00:25:05
  TRACK 20 AUDIO
    TITLE "7:cjc055_3828"
    INDEX 01 00:26:15
  TRACK 21 AUDIO
    TITLE "7:cjc055_3829"
    INDEX 01 00:27:22
  TRACK 22 AUDIO
    TITLE "7:cjc055_3830"
    INDEX 01 00:29:15
  TRACK 23 AUDIO
    TITLE "7:cjc055_3831"
    INDEX 01 00:30:16
  TRACK 24 AUDIO
    TITLE "7:cjc055_3832"
    INDEX 01 00:31:20
  TRACK 25 AUDIO
    TITLE "7:cjc055_3833"
    INDEX 01 00:32:25
  TRACK 26 AUDIO
    TITLE "7:cjc055_3834"
    INDEX 01 00:34:12
  TRACK 27 AUDIO
    TITLE "7:cjc055_3835"
    INDEX 01 00:35:17
  TRACK 28 AUDIO
    TITLE "7:cjc055_3836"
    INDEX 01 00:36:27
  TRACK 29 AUDIO
    TITLE "7:cjc055_3837"
    INDEX 01 00:37:36
  TRACK 30 AUDIO
    TITLE "7:cjc055_3838"
    INDEX 01 00:39:31
  TRACK 31 AUDIO
    TITLE "7:cjc055_3839"
    INDEX 01 00:40:38
  TRACK 32 AUDIO
    TITLE "7:cjc055_3840"
    INDEX 01 00:41:47
  TRACK 33 AUDIO
    TITLE "7:cjc055_3841"
    INDEX 01 00:42:57
  TRACK 34 AUDIO
    TITLE "7:cjc055_3842"
    INDEX 01 00:44:50
  TRACK 35 AUDIO
    TITLE "7:cjc055_3843"
    INDEX 01 00:45:65
  TRACK 36 AUDIO
    TITLE "7:cjc055_3844"
    INDEX 01 00:47:09
  TRACK 37 AUDIO
    TITLE "7:cjc055_3845"
    INDEX 01 00:48:24
  TRACK 38 AUDIO
    TITLE "7:cjc055_3846"
    INDEX 01 00:50:19
  TRACK 39 AUDIO
    TITLE "7:cjc055_3847"
    INDEX 01 00:51:26
  TRACK 40 AUDIO
    TITLE "7:cjc055_3848"
    INDEX 01 00:52:34
  TRACK 41 AUDIO
    TITLE "7:cjc055_3849"
    INDEX 01 00:53:39
  TRACK 42 AUDIO
    TITLE "7:cjc055_3850"
    INDEX 01 00:55:20
  TRACK 43 AUDIO
    TITLE "7:cjc055_3851"
    INDEX 01 00:56:27
  TRACK 44 AUDIO
    TITLE "7:cjc055_3852"
    INDEX 01 00:57:37
  TRACK 45 AUDIO
    TITLE "7:cjc055_3853"
    INDEX 01 00:58:50
  TRACK 46 AUDIO
    TITLE "7:cjc055_3854"
    INDEX 01 01:00:31
  TRACK 47 AUDIO
    TITLE "7:cjc055_3855"
    INDEX 01 01:01:36
  TRACK 48 AUDIO
    TITLE "7:cjc055_3856"
    INDEX 01 01:02:40
  TRACK 49 AUDIO
    TITLE "7:cjc055_3857"
    INDEX 01 01:04:56
  TRACK 50 AUDIO
    TITLE "7:cjc055_3858"
    INDEX 01 01:06:42
  TRACK 51 AUDIO
    TITLE "7:cjc055_3859"
    INDEX 01 01:07:43
  TRACK 52 AUDIO
    TITLE "7:cjc055_3860"
    INDEX 01 01:08:54
  TRACK 53 AUDIO
    TITLE "7:cjc055_3861"
    INDEX 01 01:09:61
  TRACK 54 AUDIO
    TITLE "7:cjc055_3862"
    INDEX 01 01:11:51
  TRACK 55 AUDIO
    TITLE "7:cjc055_3863"
    INDEX 01 01:12:54
  TRACK 56 AUDIO
    TITLE "7:cjc055_3864"
    INDEX 01 01:13:57
  TRACK 57 AUDIO
    TITLE "7:cjc055_3865"
    INDEX 01 01:14:57
  TRACK 58 AUDIO
    TITLE "7:cjc055_3866"
    INDEX 01 01:16:50
  TRACK 59 AUDIO
    TITLE "7:cjc055_3867"
    INDEX 01 01:17:55
  TRACK 60 AUDIO
    TITLE "7:cjc055_3868"
    INDEX 01 01:18:60
  TRACK 61 AUDIO
    TITLE "7:cjc055_3869"
    INDEX 01 01:19:62
  TRACK 62 AUDIO
    TITLE "7:cjc055_3870"
    INDEX 01 01:21:53
  TRACK 63 AUDIO
    TITLE "7:cjc055_3871"
    INDEX 01 01:22:60
  TRACK 64 AUDIO
    TITLE "7:cjc055_3872"
    INDEX 01 01:23:63
  TRACK 65 AUDIO
    TITLE "7:cjc055_3873"
    INDEX 01 01:24:69
  TRACK 66 AUDIO
    TITLE "7:cjc055_3874"
    INDEX 01 01:26:66
  TRACK 67 AUDIO
    TITLE "7:cjc055_3875"
    INDEX 01 01:27:65
  TRACK 68 AUDIO
    TITLE "7:cjc055_3876"
    INDEX 01 01:28:69
  TRACK 69 AUDIO
    TITLE "7:cjc055_3877"
    INDEX 01 01:29:72
  TRACK 70 AUDIO
    TITLE "7:cjc055_3878"
    INDEX 01 01:31:57
  TRACK 71 AUDIO
    TITLE "7:cjc055_3879"
    INDEX 01 01:32:62
  TRACK 72 AUDIO
    TITLE "7:cjc055_3880"
    INDEX 01 01:34:01
  TRACK 73 AUDIO
    TITLE "7:cjc055_3881"
    INDEX 01 01:35:10
  TRACK 74 AUDIO
    TITLE "7:cjc055_3882"
    INDEX 01 01:37:03
  TRACK 75 AUDIO
    TITLE "7:cjc055_3883"
    INDEX 01 01:38:04
  TRACK 76 AUDIO
    TITLE "7:cjc055_3884"
    INDEX 01 01:39:08
  TRACK 77 AUDIO
    TITLE "7:cjc055_3885"
    INDEX 01 01:40:13
  TRACK 78 AUDIO
    TITLE "7:cjc055_3886"
    INDEX 01 01:41:71
  TRACK 79 AUDIO
    TITLE "7:cjc055_3887"
    INDEX 01 01:42:73
  TRACK 80 AUDIO
    TITLE "7:cjc055_3888"
    INDEX 01 01:44:03
  TRACK 81 AUDIO
    TITLE "7:cjc055_3889"
    INDEX 01 01:45:10
  TRACK 82 AUDIO
    TITLE "7:cjc055_3890"
    INDEX 01 01:46:70
  TRACK 83 AUDIO
    TITLE "7:cjc055_3891"
    INDEX 01 01:47:68
  TRACK 84 AUDIO
    TITLE "7:cjc055_3892"
    INDEX 01 01:48:71
  TRACK 85 AUDIO
    TITLE "7:cjc055_3893"
    INDEX 01 01:50:02
  TRACK 86 AUDIO
    TITLE "7:cjc055_3894"
    INDEX 01 01:51:60
  TRACK 87 AUDIO
    TITLE "7:cjc055_3895"
    INDEX 01 01:52:57
  TRACK 88 AUDIO
    TITLE "7:cjc055_3896"
    INDEX 01 01:53:65
  TRACK 89 AUDIO
    TITLE "7:cjc055_3897"
    INDEX 01 01:54:68
  TRACK 90 AUDIO
    TITLE "7:cjc055_3898"
    INDEX 01 01:56:59
  TRACK 91 AUDIO
    TITLE "7:cjc055_3899"
    INDEX 01 01:57:66
  TRACK 92 AUDIO
    TITLE "7:cjc055_3900"
    INDEX 01 01:59:01
  TRACK 93 AUDIO
    TITLE "7:cjc055_3901"
    INDEX 01 02:00:08
  TRACK 94 AUDIO
    TITLE "7:cjc055_3902"
    INDEX 01 02:01:74
  TRACK 95 AUDIO
    TITLE "7:cjc055_3903"
    INDEX 01 02:03:04
  TRACK 96 AUDIO
    TITLE "7:cjc055_3904"
    INDEX 01 02:04:13
  TRACK 97 AUDIO
    TITLE "7:cjc055_3905"
    INDEX 01 02:05:25
  TRACK 98 AUDIO
    TITLE "7:cjc055_3906"
    INDEX 01 02:07:10
  TRACK 99 AUDIO
    TITLE "7:cjc055_3907"
    INDEX 01 02:08:11
  TRACK 100 AUDIO
    TITLE "7:cjc055_3908"
    INDEX 01 02:09:17
  TRACK 101 AUDIO
    TITLE "7:cjc055_3909"
    INDEX 01 02:10:22
  TRACK 102 AUDIO
    TITLE "7:cjc055_3910"
    INDEX 01 02:12:17
  TRACK 103 AUDIO
    TITLE "7:cjc055_3911"
    INDEX 01 02:13:24
  TRACK 104 AUDIO
    TITLE "7:cjc055_3912"
    INDEX 01 02:14:30
  TRACK 105 AUDIO
    TITLE "7:cjc055_3913"
    INDEX 01 02:15:35
  TRACK 106 AUDIO
    TITLE "7:cjc055_3914"
    INDEX 01 02:17:24
  TRACK 107 AUDIO
    TITLE "7:cjc055_3915"
    INDEX 01 02:18:35
  TRACK 108 AUDIO
    TITLE "7:cjc055_3916"
    INDEX 01 02:19:40
  TRACK 109 AUDIO
    TITLE "7:cjc055_3917"
    INDEX 01 02:20:44
  TRACK 110 AUDIO
    TITLE "7:cjc055_3918"
    INDEX 01 02:22:37
  TRACK 111 AUDIO
    TITLE "7:cjc055_3919"
    INDEX 01 02:23:36
  TRACK 112 AUDIO
    TITLE "7:cjc055_3920"
    INDEX 01 02:24:44
  TRACK 113 AUDIO
    TITLE "7:cjc055_3921"
    INDEX 01 02:25:47
  TRACK 114 AUDIO
    TITLE "7:cjc055_3922"
    INDEX 01 02:27:38
  TRACK 115 AUDIO
    TITLE "7:cjc055_3923"
    INDEX 01 02:28:45
  TRACK 116 AUDIO
    TITLE "7:cjc055_3924"
    INDEX 01 02:29:49
  TRACK 117 AUDIO
    TITLE "7:cjc055_3925"
    INDEX 01 02:30:54
  TRACK 118 AUDIO
    TITLE "7:cjc055_3926"
    INDEX 01 02:32:51
  TRACK 119 AUDIO
    TITLE "7:cjc055_3927"
    INDEX 01 02:33:60
  TRACK 120 AUDIO
    TITLE "7:cjc055_3928"
    INDEX 01 02:34:69
  TRACK 121 AUDIO
    TITLE "7:cjc055_3929"
    INDEX 01 02:36:00
  TRACK 122 AUDIO
    TITLE "7:cjc055_3930"
    INDEX 01 02:37:70
  TRACK 123 AUDIO
    TITLE "7:cjc055_3931"
    INDEX 01 02:39:02
  TRACK 124 AUDIO
    TITLE "7:cjc055_3932"
    INDEX 01 02:40:09
  TRACK 125 AUDIO
    TITLE "7:cjc055_3933"
    INDEX 01 02:41:17
  TRACK 126 AUDIO
    TITLE "7:cjc055_3934"
    INDEX 01 02:43:04
  TRACK 127 AUDIO
    TITLE "7:cjc055_3935"
    INDEX 01 02:44:09
  TRACK 128 AUDIO
    TITLE "7:cjc055_3936"
    INDEX 01 02:45:12
  TRACK 129 AUDIO
    TITLE "7:cjc055_3937"
    INDEX 01 02:46:18
  TRACK 130 AUDIO
    TITLE "7:cjc055_3938"
    INDEX 01 02:48:07
  TRACK 131 AUDIO
    TITLE "7:cjc055_3939"
    INDEX 01 02:49:06
  TRACK 132 AUDIO
    TITLE "7:cjc055_3940"
    INDEX 01 02:50:10
  TRACK 133 AUDIO
    TITLE "7:cjc055_3941"
    INDEX 01 02:51:15
  TRACK 134 AUDIO
    TITLE "7:cjc055_3942"
    INDEX 01 02:53:02
  TRACK 135 AUDIO
    TITLE "7:cjc055_3943"
    INDEX 01 02:54:06
  TRACK 136 AUDIO
    TITLE "7:cjc055_3944"
    INDEX 01 02:55:07
  TRACK 137 AUDIO
    TITLE "7:cjc055_3945"
    INDEX 01 02:56:10
  TRACK 138 AUDIO
    TITLE "7:cjc055_3946"
    INDEX 01 02:57:69
  TRACK 139 AUDIO
    TITLE "7:cjc055_3947"
    INDEX 01 02:59:22
  TRACK 140 AUDIO
    TITLE "7:cjc055_3948"
    INDEX 01 03:00:41
  TRACK 141 AUDIO
    TITLE "7:cjc055_3949"
    INDEX 01 03:01:62
  TRACK 142 AUDIO
    TITLE "7:cjc055_3950"
    INDEX 01 03:04:02
  TRACK 143 AUDIO
    TITLE "7:cjc055_3951"
    INDEX 01 03:05:07
  TRACK 144 AUDIO
    TITLE "7:cjc055_3952"
    INDEX 01 03:06:18
  TRACK 145 AUDIO
    TITLE "7:cjc055_3953"
    INDEX 01 03:07:32
  TRACK 146 AUDIO
    TITLE "7:cjc055_3954"
    INDEX 01 03:09:29
  TRACK 147 AUDIO
    TITLE "7:cjc055_3955"
    INDEX 01 03:10:38
  TRACK 148 AUDIO
    TITLE "7:cjc055_3956"
    INDEX 01 03:11:39
  TRACK 149 AUDIO
    TITLE "7:cjc055_3957"
    INDEX 01 03:12:54
  TRACK 150 AUDIO
    TITLE "7:cjc055_3958"
    INDEX 01 03:14:42
  TRACK 151 AUDIO
    TITLE "7:cjc055_3959"
    INDEX 01 03:15:45
  TRACK 152 AUDIO
    TITLE "7:cjc055_3960"
    INDEX 01 03:16:50
  TRACK 153 AUDIO
    TITLE "7:cjc055_3961"
    INDEX 01 03:17:52
  TRACK 154 AUDIO
    TITLE "7:cjc055_3962"
    INDEX 01 03:19:45
  TRACK 155 AUDIO
    TITLE "7:cjc055_3963"
    INDEX 01 03:20:52
  TRACK 156 AUDIO
    TITLE "7:cjc055_3964"
    INDEX 01 03:21:61
  TRACK 157 AUDIO
    TITLE "7:cjc055_3965"
    INDEX 01 03:22:74
  TRACK 158 AUDIO
    TITLE "7:cjc055_3966"
    INDEX 01 03:24:71
  TRACK 159 AUDIO
    TITLE "7:cjc055_3967"
    INDEX 01 03:25:73
  TRACK 160 AUDIO
    TITLE "7:cjc055_3968"
    INDEX 01 03:26:72
  TRACK 161 AUDIO
    TITLE "7:cjc055_3969"
    INDEX 01 03:28:04
  TRACK 162 AUDIO
    TITLE "7:cjc055_3970"
    INDEX 01 03:29:67
  TRACK 163 AUDIO
    TITLE "7:cjc055_3971"
    INDEX 01 03:30:68
  TRACK 164 AUDIO
    TITLE "7:cjc055_3972"
    INDEX 01 03:31:67
  TRACK 165 AUDIO
    TITLE "7:cjc055_3973"
    INDEX 01 03:33:02
  TRACK 166 AUDIO
    TITLE "7:cjc055_3974"
    INDEX 01 03:34:66
  TRACK 167 AUDIO
    TITLE "7:cjc055_3975"
    INDEX 01 03:35:71
  TRACK 168 AUDIO
    TITLE "7:cjc055_3976"
    INDEX 01 03:36:74
  TRACK 169 AUDIO
    TITLE "7:cjc055_3977"
    INDEX 01 03:38:13
  TRACK 170 AUDIO
    TITLE "7:cjc055_3978"
    INDEX 01 03:40:10
  TRACK 171 AUDIO
    TITLE "7:cjc055_3979"
    INDEX 01 03:41:11
  TRACK 172 AUDIO
    TITLE "7:cjc055_3980"
    INDEX 01 03:42:14
  TRACK 173 AUDIO
    TITLE "7:cjc055_3981"
    INDEX 01 03:44:23
  TRACK 174 AUDIO
    TITLE "7:cjc055_3982"
    INDEX 01 03:46:10
  TRACK 175 AUDIO
    TITLE "7:cjc055_3983"
    INDEX 01 03:47:14
  TRACK 176 AUDIO
    TITLE "7:cjc055_3984"
    INDEX 01 03:48:23
  TRACK 177 AUDIO
    TITLE "7:cjc055_3985"
    INDEX 01 03:49:30
  TRACK 178 AUDIO
    TITLE "7:cjc055_3986"
    INDEX 01 03:51:11
  TRACK 179 AUDIO
    TITLE "7:cjc055_3987"
    INDEX 01 03:52:09
  TRACK 180 AUDIO
    TITLE "7:cjc055_3988"
    INDEX 01 03:53:14
  TRACK 181 AUDIO
    TITLE "7:cjc055_3989"
    INDEX 01 03:54:21
  TRACK 182 AUDIO
    TITLE "7:cjc055_3990"
    INDEX 01 03:56:03
  TRACK 183 AUDIO
    TITLE "7:cjc055_3991"
    INDEX 01 03:57:14
  TRACK 184 AUDIO
    TITLE "7:cjc055_3992"
    INDEX 01 03:58:21
  TRACK 185 AUDIO
    TITLE "7:cjc055_3993"
    INDEX 01 03:59:34
  TRACK 186 AUDIO
    TITLE "7:cjc055_3994"
    INDEX 01 04:01:23
  TRACK 187 AUDIO
    TITLE "7:cjc055_3995"
    INDEX 01 04:02:31
  TRACK 188 AUDIO
    TITLE "7:cjc055_3996"
    INDEX 01 04:03:42
  TRACK 189 AUDIO
    TITLE "7:cjc055_3997"
    INDEX 01 04:04:55
  TRACK 190 AUDIO
    TITLE "7:cjc055_3998"
    INDEX 01 04:06:54
  TRACK 191 AUDIO
    TITLE "7:cjc055_3999"
    INDEX 01 04:07:63
  TRACK 192 AUDIO
    TITLE "7:cjc055_4000"
    INDEX 01 04:08:71
  TRACK 193 AUDIO
    TITLE "7:cjc055_4001"
    INDEX 01 04:10:07
  TRACK 194 AUDIO
    TITLE "7:cjc055_4002"
    INDEX 01 04:11:73
  TRACK 195 AUDIO
    TITLE "7:cjc055_4003"
    INDEX 01 04:13:09
  TRACK 196 AUDIO
    TITLE "7:cjc055_4004"
    INDEX 01 04:14:10
  TRACK 197 AUDIO
    TITLE "7:cjc055_4005"
    INDEX 01 04:15:18
  TRACK 198 AUDIO
    TITLE "7:cjc055_4006"
    INDEX 01 04:17:11
  TRACK 199 AUDIO
    TITLE "7:cjc055_4007"
    INDEX 01 04:18:22
  TRACK 200 AUDIO
    TITLE "7:cjc055_4008"
    INDEX 01 04:19:33
  TRACK 201 AUDIO
    TITLE "7:cjc055_4009"
    INDEX 01 04:20:44
  TRACK 202 AUDIO
    TITLE "7:cjc055_4010"
    INDEX 01 04:22:43
  TRACK 203 AUDIO
    TITLE "7:cjc055_4011"
    INDEX 01 04:23:52
  TRACK 204 AUDIO
    TITLE "7:cjc055_4012"
    INDEX 01 04:24:62
  TRACK 205 AUDIO
    TITLE "7:cjc055_4013"
    INDEX 01 04:26:02
  TRACK 206 AUDIO
    TITLE "7:cjc055_4014"
    INDEX 01 04:27:68
  TRACK 207 AUDIO
    TITLE "7:cjc055_4015"
    INDEX 01 04:29:04
  TRACK 208 AUDIO
    TITLE "7:cjc055_4016"
    INDEX 01 04:30:21
  TRACK 209 AUDIO
    TITLE "7:cjc055_4017"
    INDEX 01 04:31:34
  TRACK 210 AUDIO
    TITLE "7:cjc055_4018"
    INDEX 01 04:33:23
  TRACK 211 AUDIO
    TITLE "7:cjc055_4019"
    INDEX 01 04:34:33
  TRACK 212 AUDIO
    TITLE "7:cjc055_4020"
    INDEX 01 04:35:40
  TRACK 213 AUDIO
    TITLE "7:cjc055_4021"
    INDEX 01 04:36:57
  TRACK 214 AUDIO
    TITLE "7:cjc055_4022"
    INDEX 01 04:38:62
  TRACK 215 AUDIO
    TITLE "7:cjc055_4023"
    INDEX 01 04:39:61
  TRACK 216 AUDIO
    TITLE "7:cjc055_4024"
    INDEX 01 04:40:59
  TRACK 217 AUDIO
    TITLE "7:cjc055_4025"
    INDEX 01 04:41:66
  TRACK 218 AUDIO
    TITLE "7:cjc055_4026"
    INDEX 01 04:43:55
  TRACK 219 AUDIO
    TITLE "7:cjc055_4027"
    INDEX 01 04:44:64
  TRACK 220 AUDIO
    TITLE "7:cjc055_4028"
    INDEX 01 04:45:72
  TRACK 221 AUDIO
    TITLE "7:cjc055_4029"
    INDEX 01 04:47:06
  TRACK 222 AUDIO
    TITLE "7:cjc055_4030"
    INDEX 01 04:48:74
  TRACK 223 AUDIO
    TITLE "7:cjc055_4031"
    INDEX 01 04:50:04
  TRACK 224 AUDIO
    TITLE "7:cjc055_4032"
    INDEX 01 04:51:10
  TRACK 225 AUDIO
    TITLE "7:cjc055_4033"
    INDEX 01 04:52:21
  TRACK 226 AUDIO
    TITLE "0:"
    INDEX 01 04:53:54
